# xmcd CD database file
#
# Track frame offsets:
#	150
#	14905
#	29658
#	46519
#	62745
#	76413
#	96190
#	116484
#	128140
#	140810
#	156724
#	170948
#	183146
#	189923
#	205751
#	217764
#	231814
#	245537
#	259219
#	264086
#
# Disc length: 3610 seconds
#
# Revision: 1
# Processed by: cddbd v1.5.2PL0 Copyright (c) Steve Scherf et al.
# Submitted via: CDex 1.51
#
DISCID=1f0e1814
DTITLE=Nature - 100 moments nature
DYEAR=2009
DGENRE=New Age
TTITLE0=Met dans les rochers
TTITLE1=Marée descendante
TTITLE2=La mer de nuit
TTITLE3=La vague termine sa route
TTITLE4=Clapotis et goélands argentés
TTITLE5=L'eau de mer
TTITLE6=Le bois près de la plage
TTITLE7=Vague et galets
TTITLE8=Plage de galets
TTITLE9=digue de galets
TTITLE10=Entre rochers et galets
TTITLE11=Oiseaux de mer
TTITLE12=Port de plaisance
TTITLE13=Le vent souffle dans le port
TTITLE14=Rouleaux sur l'atlantique
TTITLE15=Plage de sable noir
TTITLE16=Mer houleuse
TTITLE17=Falaise de granit rose
TTITLE18=Falaise à marée haute
TTITLE19=Goéland argenté
EXTD=YEAR: 2009
EXTT0=
EXTT1=
EXTT2=
EXTT3=
EXTT4=
EXTT5=
EXTT6=
EXTT7=
EXTT8=
EXTT9=
EXTT10=
EXTT11=
EXTT12=
EXTT13=
EXTT14=
EXTT15=
EXTT16=
EXTT17=
EXTT18=
EXTT19=
PLAYORDER=
